<svg width="512" height="512" viewBox="0 0 512 512" xmlns="http://www.w3.org/2000/svg">
  <!-- 배경 원 -->
  <circle cx="256" cy="256" r="240" fill="#2c5530"/>
  <circle cx="256" cy="256" r="220" fill="#4a7c59" stroke="#3a6b49" stroke-width="2"/>
  
  <!-- 악보 선들 -->
  <g transform="translate(256, 180)">
    <line x1="-100" y1="-20" x2="100" y2="-20" stroke="#ffffff" stroke-width="3" opacity="0.9"/>
    <line x1="-100" y1="-10" x2="100" y2="-10" stroke="#ffffff" stroke-width="3" opacity="0.9"/>
    <line x1="-100" y1="0" x2="100" y2="0" stroke="#ffffff" stroke-width="3" opacity="0.9"/>
    <line x1="-100" y1="10" x2="100" y2="10" stroke="#ffffff" stroke-width="3" opacity="0.9"/>
    <line x1="-100" y1="20" x2="100" y2="20" stroke="#ffffff" stroke-width="3" opacity="0.9"/>
  </g>
  
  <!-- 음표들 -->
  <g transform="translate(200, 180)">
    <!-- 첫 번째 음표 -->
    <ellipse cx="0" cy="-10" rx="12" ry="8" fill="#ffffff"/>
    <rect x="10" y="-18" width="4" height="25" fill="#ffffff" rx="2"/>
    <path d="M14,-18 Q25,-25 14,-32 Q3,-25 14,-18" fill="#ffffff"/>
  </g>
  
  <g transform="translate(240, 180)">
    <!-- 두 번째 음표 -->
    <ellipse cx="0" cy="0" rx="12" ry="8" fill="#ffffff"/>
    <rect x="10" y="-8" width="4" height="25" fill="#ffffff" rx="2"/>
    <path d="M14,-8 Q25,-15 14,-22 Q3,-15 14,-8" fill="#ffffff"/>
  </g>
  
  <g transform="translate(280, 180)">
    <!-- 세 번째 음표 -->
    <ellipse cx="0" cy="10" rx="12" ry="8" fill="#ffffff"/>
    <rect x="10" y="2" width="4" height="25" fill="#ffffff" rx="2"/>
    <path d="M14,2 Q25,-5 14,-12 Q3,-5 14,2" fill="#ffffff"/>
  </g>
  
  <g transform="translate(320, 180)">
    <!-- 네 번째 음표 -->
    <ellipse cx="0" cy="-5" rx="12" ry="8" fill="#ffffff"/>
    <rect x="10" y="-13" width="4" height="25" fill="#ffffff" rx="2"/>
    <path d="M14,-13 Q25,-20 14,-27 Q3,-20 14,-13" fill="#ffffff"/>
  </g>
  
  <!-- 음표 연결선 -->
  <line x1="212" y1="170" x2="332" y2="185" stroke="#ffffff" stroke-width="2" opacity="0.7"/>
  
  <!-- 악보 기호들 -->
  <g transform="translate(120, 180)">
    <!-- 높은음자리표 -->
    <path d="M0,-15 Q-8,-25 -15,-15 Q-8,-5 0,-15 Q8,-25 15,-15 Q8,-5 0,-15" 
          stroke="#ffffff" stroke-width="3" fill="none" opacity="0.8"/>
  </g>
  
  <!-- 악보 하단 음표들 -->
  <g transform="translate(256, 280)">
    <!-- 하단 음표 1 -->
    <ellipse cx="-40" cy="0" rx="10" ry="7" fill="#ffffff" opacity="0.8"/>
    <rect x="-30" y="-7" width="3" height="20" fill="#ffffff" opacity="0.8" rx="1.5"/>
    
    <!-- 하단 음표 2 -->
    <ellipse cx="0" cy="0" rx="10" ry="7" fill="#ffffff" opacity="0.8"/>
    <rect x="10" y="-7" width="3" height="20" fill="#ffffff" opacity="0.8" rx="1.5"/>
    
    <!-- 하단 음표 3 -->
    <ellipse cx="40" cy="0" rx="10" ry="7" fill="#ffffff" opacity="0.8"/>
    <rect x="50" y="-7" width="3" height="20" fill="#ffffff" opacity="0.8" rx="1.5"/>
  </g>
  
  <!-- 악보 하단 선들 -->
  <g transform="translate(256, 280)">
    <line x1="-60" y1="-15" x2="60" y2="-15" stroke="#ffffff" stroke-width="2" opacity="0.6"/>
    <line x1="-60" y1="-5" x2="60" y2="-5" stroke="#ffffff" stroke-width="2" opacity="0.6"/>
    <line x1="-60" y1="5" x2="60" y2="5" stroke="#ffffff" stroke-width="2" opacity="0.6"/>
    <line x1="-60" y1="15" x2="60" y2="15" stroke="#ffffff" stroke-width="2" opacity="0.6"/>
  </g>
  
  <!-- 십자가 (찬양의 의미) -->
  <g transform="translate(256, 350)">
    <!-- 십자가 세로 -->
    <rect x="-5" y="-25" width="10" height="50" fill="#ffffff" rx="5"/>
    <!-- 십자가 가로 -->
    <rect x="-25" y="-5" width="50" height="10" fill="#ffffff" rx="5"/>
  </g>
</svg>
